<svg width="386" height="386" viewBox="0 0 386 386" fill="none" xmlns="http://www.w3.org/2000/svg">
<path d="M193 386C299.591 386 386 299.591 386 193C386 86.409 299.591 0 193 0C86.409 0 0 86.409 0 193C0 299.591 86.409 386 193 386Z" fill="#E81620"/>
<mask id="mask0_6_48" style="mask-type:luminance" maskUnits="userSpaceOnUse" x="0" y="0" width="386" height="386">
<path d="M193 386C299.591 386 386 299.591 386 193C386 86.409 299.591 0 193 0C86.409 0 0 86.409 0 193C0 299.591 86.409 386 193 386Z" fill="white"/>
</mask>
<g mask="url(#mask0_6_48)">
<path d="M160.749 53.2929C168.469 60.8884 174.322 69.6046 178.306 78.9433C180.423 83.7994 182.042 88.9046 183.162 94.1342C186.524 109.823 184.905 126.259 178.431 140.952C177.31 143.443 176.065 145.808 174.695 148.174C171.707 153.404 167.847 158.385 163.489 162.867C159.131 167.35 154.15 171.21 148.92 174.323C148.173 174.821 147.302 175.319 146.555 175.692C144.936 176.564 143.442 177.311 141.823 178.058C134.227 181.545 126.258 183.661 118.04 184.408C108.951 185.28 99.7364 184.657 90.7713 182.292C90.5222 182.292 90.2732 182.167 90.0242 182.043C85.5416 180.797 81.059 179.179 76.8255 177.186C68.6074 173.326 61.0119 168.097 54.1635 161.373C50.9261 158.26 48.0623 154.898 45.5719 151.287C46.07 151.287 46.5681 151.287 47.0661 151.163C56.6539 150.042 65.9926 148.05 74.8332 145.061C78.6932 143.692 82.5532 142.197 86.1642 140.579C62.2571 124.641 38.4745 108.578 14.5674 92.64C14.941 91.8929 15.3145 91.1459 15.6881 90.5233C16.5597 88.9046 17.5558 87.2859 18.4274 85.6671C18.801 85.0446 19.1745 84.422 19.5481 83.7994C19.5481 83.6749 19.6726 83.5504 19.7971 83.4258L95.0048 136.221C95.7519 135.847 96.499 135.349 97.2461 134.851C105.215 130.119 112.437 124.516 119.036 117.792C125.636 111.068 131.737 103.099 136.469 94.7568C118.538 69.8536 100.484 44.8258 82.5532 19.9226L82.8023 19.7981C83.4248 19.4246 84.0474 19.051 84.67 18.5529C86.2887 17.5568 87.9074 16.6852 89.5261 15.6891C90.2732 15.3155 91.0203 14.8175 91.7674 14.4439C108.079 38.2265 124.515 62.1336 140.827 85.9162C140.827 85.6671 141.076 85.5426 141.076 85.2936C142.819 81.3091 144.438 77.3246 145.807 73.091C148.671 64.2504 150.539 54.9117 151.535 45.3239C154.773 47.6897 157.885 50.3046 160.874 53.2929H160.749Z" fill="white"/>
<path d="M225.249 53.2929C217.529 60.8884 211.676 69.6046 207.692 78.9433C205.575 83.7994 203.956 88.9046 202.836 94.1342C199.474 109.823 201.092 126.259 207.567 140.952C208.688 143.443 209.933 145.808 211.303 148.174C214.291 153.404 218.151 158.385 222.509 162.867C226.867 167.35 231.848 171.21 237.078 174.323C237.825 174.821 238.696 175.319 239.443 175.692C241.062 176.564 242.556 177.311 244.175 178.058C251.77 181.545 259.74 183.661 267.958 184.408C277.047 185.28 286.261 184.657 295.227 182.292C295.476 182.292 295.725 182.167 295.974 182.043C300.456 180.797 304.939 179.179 309.172 177.186C317.39 173.326 324.986 168.097 331.834 161.373C335.072 158.26 337.936 154.898 340.426 151.287C339.928 151.287 339.43 151.287 338.932 151.163C329.344 150.042 320.005 148.05 311.165 145.061C307.305 143.692 303.445 142.197 299.834 140.579C323.741 124.641 347.523 108.578 371.43 92.64C371.057 91.8929 370.683 91.1459 370.31 90.5233C369.438 88.9046 368.442 87.2859 367.57 85.6671C367.197 85.0446 366.823 84.422 366.45 83.7994C366.45 83.6749 366.325 83.5504 366.201 83.4258L290.993 136.221C290.246 135.847 289.499 135.349 288.752 134.851C280.783 130.119 273.561 124.516 266.961 117.792C260.362 111.068 254.261 103.099 249.529 94.7568C267.46 69.8536 285.514 44.8258 303.445 19.9226L303.196 19.7981C302.573 19.4246 301.95 19.051 301.328 18.5529C299.709 17.5568 298.09 16.6852 296.472 15.6891C295.725 15.3155 294.978 14.8175 294.23 14.4439C277.919 38.2265 261.483 62.1336 245.171 85.9162C245.171 85.6671 244.922 85.5426 244.922 85.2936C243.179 81.3091 241.56 77.3246 240.19 73.091C237.327 64.2504 235.459 54.9117 234.463 45.3239C231.225 47.6897 228.112 50.3046 225.124 53.2929H225.249Z" fill="white"/>
<path d="M160.749 332.707C168.469 325.112 174.322 316.395 178.306 307.057C180.423 302.201 182.042 297.095 183.162 291.866C186.524 276.177 184.906 259.741 178.431 245.048C177.31 242.557 176.065 240.192 174.695 237.826C171.707 232.596 167.847 227.615 163.489 223.133C159.131 218.65 154.15 214.79 148.92 211.677C148.173 211.179 147.302 210.681 146.555 210.308C144.936 209.436 143.442 208.689 141.823 207.942C134.227 204.455 126.258 202.339 118.04 201.592C108.951 200.72 99.7365 201.343 90.7713 203.708C90.5223 203.708 90.2732 203.833 90.0242 203.957C85.5416 205.203 81.0591 206.821 76.8255 208.814C68.6074 212.674 61.012 217.903 54.1636 224.627C50.9262 227.74 48.0623 231.102 45.572 234.713C46.07 234.713 46.5681 234.713 47.0662 234.837C56.6539 235.958 65.9926 237.95 74.8333 240.939C78.6933 242.308 82.5532 243.803 86.1642 245.421C62.2571 261.359 38.4745 277.422 14.5674 293.36C14.941 294.107 15.3145 294.854 15.6881 295.477C16.5597 297.095 17.5558 298.714 18.4274 300.333C18.801 300.955 19.1745 301.578 19.5481 302.201C19.5481 302.325 19.6726 302.45 19.7971 302.574L95.0049 249.779C95.752 250.153 96.4991 250.651 97.2461 251.149C105.215 255.881 112.437 261.484 119.036 268.208C125.636 274.932 131.737 282.901 136.469 291.243C118.538 316.146 100.484 341.174 82.5532 366.077L82.8023 366.202C83.4249 366.575 84.0474 366.949 84.67 367.447C86.2887 368.443 87.9074 369.315 89.5262 370.311C90.2732 370.684 91.0203 371.183 91.7674 371.556C108.079 347.774 124.515 323.866 140.827 300.084C140.827 300.333 141.076 300.457 141.076 300.706C142.819 304.691 144.438 308.675 145.807 312.909C148.671 321.75 150.539 331.088 151.535 340.676C154.773 338.31 157.885 335.695 160.874 332.707H160.749Z" fill="white"/>
<path d="M225.249 332.707C217.529 325.112 211.676 316.395 207.692 307.057C205.575 302.201 203.956 297.095 202.836 291.866C199.474 276.177 201.092 259.741 207.567 245.048C208.688 242.557 209.933 240.192 211.303 237.826C214.291 232.596 218.151 227.615 222.509 223.133C226.867 218.65 231.848 214.79 237.078 211.677C237.825 211.179 238.696 210.681 239.443 210.308C241.062 209.436 242.556 208.689 244.175 207.942C251.77 204.455 259.74 202.339 267.958 201.592C277.047 200.72 286.261 201.343 295.227 203.708C295.476 203.708 295.725 203.833 295.974 203.957C300.456 205.203 304.939 206.821 309.172 208.814C317.39 212.674 324.986 217.903 331.834 224.627C335.072 227.74 337.936 231.102 340.426 234.713C339.928 234.713 339.43 234.713 338.932 234.837C329.344 235.958 320.005 237.95 311.165 240.939C307.305 242.308 303.445 243.803 299.834 245.421C323.741 261.359 347.523 277.422 371.43 293.36C371.057 294.107 370.683 294.854 370.31 295.477C369.438 297.095 368.442 298.714 367.57 300.333C367.197 300.955 366.823 301.578 366.45 302.201C366.45 302.325 366.325 302.45 366.201 302.574L290.993 249.779C290.246 250.153 289.499 250.651 288.752 251.149C280.783 255.881 273.561 261.484 266.961 268.208C260.362 274.932 254.261 282.901 249.529 291.243C267.46 316.146 285.514 341.174 303.445 366.077L303.196 366.202C302.573 366.575 301.95 366.949 301.328 367.447C299.709 368.443 298.09 369.315 296.472 370.311C295.725 370.684 294.978 371.183 294.23 371.556C277.919 347.774 261.483 323.866 245.171 300.084C245.171 300.333 244.922 300.457 244.922 300.706C243.179 304.691 241.56 308.675 240.19 312.909C237.327 321.75 235.459 331.088 234.463 340.676C231.225 338.31 228.112 335.695 225.124 332.707H225.249Z" fill="white"/>
</g>
</svg>
